<svg xmlns="http://www.w3.org/2000/svg" viewBox="0 0 200 200" fill="none">
  <!-- Background circle -->
  <circle cx="100" cy="100" r="100" fill="url(#gradient)"/>
  
  <!-- Face -->
  <circle cx="100" cy="90" r="45" fill="#FDBCB4"/>
  
  <!-- Hair -->
  <path d="M55 70 Q100 50, 145 70 Q140 65, 130 60 Q100 45, 70 60 Q60 65, 55 70" fill="#2C1810"/>
  
  <!-- Eyes -->
  <circle cx="80" cy="85" r="3" fill="#333"/>
  <circle cx="120" cy="85" r="3" fill="#333"/>
  
  <!-- Eyebrows (thick and determined) -->
  <rect x="70" y="75" width="20" height="4" rx="2" fill="#2C1810"/>
  <rect x="110" y="75" width="20" height="4" rx="2" fill="#2C1810"/>
  
  <!-- Nose -->
  <path d="M100 90 L95 100 L100 100" stroke="#E8A99C" stroke-width="2" stroke-linecap="round" fill="none"/>
  
  <!-- Smile -->
  <path d="M85 105 Q100 115, 115 105" stroke="#333" stroke-width="2" stroke-linecap="round" fill="none"/>
  
  <!-- Strong neck -->
  <rect x="85" y="120" width="30" height="25" fill="#FDBCB4"/>
  
  <!-- Muscular shoulders -->
  <ellipse cx="100" cy="160" rx="65" ry="40" fill="#E7674C"/>
  
  <!-- Tank top straps -->
  <rect x="70" y="140" width="15" height="30" fill="#E7674C"/>
  <rect x="115" y="140" width="15" height="30" fill="#E7674C"/>
  
  <!-- Chest muscle definition -->
  <path d="M70 160 Q100 150, 130 160" stroke="#C9563D" stroke-width="2" fill="none" opacity="0.5"/>
  
  <!-- Gradient definition -->
  <defs>
    <linearGradient id="gradient" x1="0%" y1="0%" x2="100%" y2="100%">
      <stop offset="0%" style="stop-color:#E7674C;stop-opacity:1" />
      <stop offset="100%" style="stop-color:#F08E6F;stop-opacity:1" />
    </linearGradient>
  </defs>
</svg>
