<svg width="200" height="56" viewBox="0 0 200 56" fill="none" xmlns="http://www.w3.org/2000/svg">
  <defs>
    <linearGradient id="blueGradient" x1="0%" y1="0%" x2="100%" y2="100%">
      <stop offset="0%" style="stop-color:#3B82F6;stop-opacity:1" />
      <stop offset="25%" style="stop-color:#4F8FF9;stop-opacity:1" />
      <stop offset="50%" style="stop-color:#60A5FA;stop-opacity:1" />
      <stop offset="75%" style="stop-color:#7FB5FB;stop-opacity:1" />
      <stop offset="100%" style="stop-color:#93C5FD;stop-opacity:1" />
    </linearGradient>
    <linearGradient id="depthGradient" x1="0%" y1="0%" x2="0%" y2="100%">
      <stop offset="0%" style="stop-color:#2563EB;stop-opacity:1" />
      <stop offset="100%" style="stop-color:#1E40AF;stop-opacity:1" />
    </linearGradient>
    <filter id="textShadow" x="-50%" y="-50%" width="200%" height="200%">
      <feGaussianBlur in="SourceAlpha" stdDeviation="2"/>
      <feOffset dx="0" dy="2" result="offsetblur"/>
      <feFlood flood-color="#1E40AF" flood-opacity="0.2"/>
      <feComposite in2="offsetblur" operator="in"/>
      <feMerge>
        <feMergeNode/>
        <feMergeNode in="SourceGraphic"/>
      </feMerge>
    </filter>
  </defs>

  <!-- GYMTOPIA text with stylized font -->
  <g filter="url(#textShadow)">
    <!-- G -->
    <path d="M 20 18 Q 15 18 12 21 Q 10 24 10 28 Q 10 32 12 35 Q 15 38 20 38 L 23 38 L 23 34 L 20 34 Q 18 34 16.5 32.5 Q 15 31 15 28 Q 15 25 16.5 23.5 Q 18 22 20 22 L 26 22 L 26 30 L 22 30 L 22 26 L 18 26 L 18 34 L 30 34 L 30 18 Z" fill="url(#blueGradient)"/>

    <!-- Y -->
    <path d="M 36 18 L 41 28 L 46 18 L 51 18 L 44 31 L 44 38 L 38 38 L 38 31 L 31 18 Z" fill="url(#blueGradient)"/>

    <!-- M -->
    <path d="M 54 18 L 54 38 L 59 38 L 59 26 L 63 34 L 67 34 L 71 26 L 71 38 L 76 38 L 76 18 L 70 18 L 65 28 L 60 18 Z" fill="url(#blueGradient)"/>

    <!-- T -->
    <path d="M 82 18 L 82 22 L 89 22 L 89 38 L 95 38 L 95 22 L 102 22 L 102 18 Z" fill="url(#blueGradient)"/>

    <!-- O -->
    <path d="M 106 28 Q 106 32 108.5 35 Q 111 38 115 38 Q 119 38 121.5 35 Q 124 32 124 28 Q 124 24 121.5 21 Q 119 18 115 18 Q 111 18 108.5 21 Q 106 24 106 28 Z M 111 28 Q 111 25 112.5 23.5 Q 114 22 115 22 Q 116 22 117.5 23.5 Q 119 25 119 28 Q 119 31 117.5 32.5 Q 116 34 115 34 Q 114 34 112.5 32.5 Q 111 31 111 28 Z" fill="url(#blueGradient)"/>

    <!-- P -->
    <path d="M 128 18 L 128 38 L 133 38 L 133 30 L 137 30 Q 140 30 142 28 Q 144 26 144 23 Q 144 20 142 18 Q 140 18 137 18 Z M 133 22 L 137 22 Q 138 22 138.5 22.5 Q 139 23 139 23 Q 139 24 138.5 24.5 Q 138 26 137 26 L 133 26 Z" fill="url(#blueGradient)"/>

    <!-- I -->
    <path d="M 148 18 L 148 22 L 152 22 L 152 34 L 148 34 L 148 38 L 160 38 L 160 34 L 156 34 L 156 22 L 160 22 L 160 18 Z" fill="url(#blueGradient)"/>

    <!-- A -->
    <path d="M 164 38 L 170 38 L 177 18 L 172 18 L 167 32 L 162 18 L 157 18 Z M 163 28 L 171 28 L 171 24 L 163 24 Z" fill="url(#blueGradient)"/>
  </g>

  <!-- Decorative underline -->
  <rect x="10" y="42" width="167" height="2" rx="1" fill="url(#blueGradient)" opacity="0.3"/>
</svg>