<svg width="240" height="60" viewBox="0 0 240 60" fill="none" xmlns="http://www.w3.org/2000/svg">
  <!-- ジムトピア in stylized Katakana -->

  <!-- ジ -->
  <path d="M 12 15 L 28 15 L 28 18 L 15 18 L 15 22 L 26 22 L 26 25 L 15 25 L 15 35 Q 15 38 18 40 L 22 42 L 19 45 Q 12 42 10 38 Q 8 34 8 28 L 8 18 L 5 18 L 5 15 L 8 15 Z M 20 8 L 20 12 L 24 12 L 24 8 Z M 26 8 L 26 12 L 30 12 L 30 8 Z" fill="currentColor"/>

  <!-- ム -->
  <path d="M 38 20 L 38 17 L 45 17 L 50 32 L 55 17 L 62 17 L 62 20 L 58 20 L 52 40 Q 50 45 45 45 Q 40 45 38 40 L 32 20 Z M 48 38 L 52 38 Q 50 42 50 42 Z" fill="currentColor"/>

  <!-- ト -->
  <path d="M 70 15 L 88 15 L 88 19 L 78 19 L 78 40 Q 78 42 76 44 L 72 42 Q 74 40 74 38 L 74 19 L 70 19 Z" fill="currentColor"/>

  <!-- ピ -->
  <path d="M 96 18 L 96 15 L 112 15 L 112 18 L 108 18 L 108 28 Q 108 32 110 34 Q 112 36 116 36 Q 120 36 122 34 Q 124 32 124 28 L 124 18 L 120 18 L 120 15 L 128 15 L 128 18 L 127 18 L 127 28 Q 127 34 123 38 Q 119 42 114 42 Q 109 42 105 38 Q 101 34 101 28 L 101 18 Z M 114 8 Q 116 8 117 9 Q 118 10 118 12 Q 118 14 117 15 Q 116 16 114 16 Q 112 16 111 15 Q 110 14 110 12 Q 110 10 111 9 Q 112 8 114 8 Z" fill="currentColor"/>

  <!-- ア -->
  <path d="M 140 20 L 140 17 L 148 17 L 160 17 L 160 20 L 156 20 L 150 35 L 158 42 L 154 45 L 148 38 L 142 45 L 138 42 L 146 35 Z M 148 22 L 144 32 L 152 32 Z" fill="currentColor"/>
</svg>